HIERARCHY
ROOT Hips
{
	OFFSET 0.000000 0.000000 0.000000
	CHANNELS 6 Xposition Yposition Zposition Xrotation Yrotation Zrotation
	JOINT LeftUpLeg_virtual
	{
		OFFSET 0.000000 0.000000 0.000000
		CHANNELS 3 Xrotation Yrotation Zrotation
		JOINT LeftUpLeg
		{
			OFFSET 10.205400 -3.823500 0.155100
			CHANNELS 3 Xrotation Yrotation Zrotation
			JOINT LeftLeg
			{
				OFFSET 0.708757 -12.982077 0.567790
				CHANNELS 3 Xrotation Yrotation Zrotation
				JOINT LeftFoot
				{
					OFFSET -0.708756 -10.717838 -2.184338
					CHANNELS 3 Xrotation Yrotation Zrotation
					JOINT LeftToeBase
					{
						OFFSET 0.108149 -7.191104 7.560241
						CHANNELS 3 Xrotation Yrotation Zrotation
						JOINT LeftToe_End
						{
							OFFSET 0.070230 0.081724 4.490308
							CHANNELS 3 Xrotation Yrotation Zrotation
							End Site
							{
								OFFSET 0 0 0
							}
						}
					}
				}
			}
		}
	}
	JOINT RightUpLeg_virtual
	{
		OFFSET 0.000000 0.000000 0.000000
		CHANNELS 3 Xrotation Yrotation Zrotation
		JOINT RightUpLeg
		{
			OFFSET -10.205400 -3.823500 0.005500
			CHANNELS 3 Xrotation Yrotation Zrotation
			JOINT RightLeg
			{
				OFFSET -0.708756 -12.982134 0.610632
				CHANNELS 3 Xrotation Yrotation Zrotation
				JOINT RightFoot
				{
					OFFSET 0.708754 -10.717769 -1.945823
					CHANNELS 3 Xrotation Yrotation Zrotation
					JOINT RightToeBase
					{
						OFFSET -0.108140 -7.191069 7.372968
						CHANNELS 3 Xrotation Yrotation Zrotation
						JOINT RightToe_End
						{
							OFFSET -0.070227 0.081735 4.479403
							CHANNELS 3 Xrotation Yrotation Zrotation
							End Site
							{
								OFFSET 0 0 0
							}
						}
					}
				}
			}
		}
	}
	JOINT Spine_virtual
	{
		OFFSET 0.000000 0.000000 0.000000
		CHANNELS 3 Xrotation Yrotation Zrotation
		JOINT Spine
		{
			OFFSET 0.000000 6.876099 0.125700
			CHANNELS 3 Xrotation Yrotation Zrotation
			JOINT Spine1
			{
				OFFSET 0.000000 5.730043 0.104720
				CHANNELS 3 Xrotation Yrotation Zrotation
				JOINT Spine1_split
				{
					OFFSET 0.000000 5.730043 0.104720
					CHANNELS 3 Xrotation Yrotation Zrotation
					JOINT Spine2
					{
						OFFSET 0.000000 5.730043 0.104720
						CHANNELS 3 Xrotation Yrotation Zrotation
						JOINT Neck_virtual
						{
							OFFSET 0.000000 0.000000 0.000000
							CHANNELS 3 Xrotation Yrotation Zrotation
							JOINT Neck
							{
								OFFSET 0.000000 10.314075 0.188496
								CHANNELS 3 Xrotation Yrotation Zrotation
								JOINT Head
								{
									OFFSET 0.000000 7.643700 -2.377400
									CHANNELS 3 Xrotation Yrotation Zrotation
									JOINT HeadTop_End
									{
										OFFSET 0.000000 43.788605 -13.619600
										CHANNELS 3 Xrotation Yrotation Zrotation
										End Site
										{
											OFFSET 0 0 0
										}
									}
								}
							}
						}
						JOINT LeftShoulder_virtual
						{
							OFFSET 0.000000 0.000000 0.000000
							CHANNELS 3 Xrotation Yrotation Zrotation
							JOINT LeftShoulder
							{
								OFFSET 2.196100 4.412489 0.087492
								CHANNELS 3 Xrotation Yrotation Zrotation
								JOINT LeftShoulder_split
								{
									OFFSET 2.196100 4.412489 0.087492
									CHANNELS 3 Xrotation Yrotation Zrotation
									JOINT LeftArm
									{
										OFFSET 8.771219 -2.981674 -0.026999
										CHANNELS 3 Xrotation Yrotation Zrotation
										JOINT LeftForeArm
										{
											OFFSET 8.512804 0.000000 -0.000000
											CHANNELS 3 Xrotation Yrotation Zrotation
											JOINT LeftHand
											{
												OFFSET 18.484802 0.000000 -0.000000
												CHANNELS 3 Xrotation Yrotation Zrotation
												End Site
												{
													OFFSET 0 0 0
												}
											}
										}
									}
								}
							}
						}
						JOINT RightShoulder_virtual
						{
							OFFSET 0.000000 0.000000 0.000000
							CHANNELS 3 Xrotation Yrotation Zrotation
							JOINT RightShoulder
							{
								OFFSET -2.196100 4.412496 0.070690
								CHANNELS 3 Xrotation Yrotation Zrotation
								JOINT RightShoulder_split
								{
									OFFSET -2.196100 4.412496 0.070690
									CHANNELS 3 Xrotation Yrotation Zrotation
									JOINT RightArm
									{
										OFFSET -8.771282 -2.981682 -0.094208
										CHANNELS 3 Xrotation Yrotation Zrotation
										JOINT RightForeArm
										{
											OFFSET -8.494598 0.000000 0.000000
											CHANNELS 3 Xrotation Yrotation Zrotation
											JOINT RightHand
											{
												OFFSET -18.483803 0.000000 0.000001
												CHANNELS 3 Xrotation Yrotation Zrotation
												End Site
												{
													OFFSET 0 0 0
												}
											}
										}
									}
								}
							}
						}
					}
				}
			}
		}
	}
}
MOTION
Frames: 5
Frame Time: 0.03333333
-0.228122 33.680767 -0.431076 0.000000 0.000000 0.000000 1.198327 -31.151468 -0.246372 -17.642631 15.917104 16.301802 22.054126 8.945133 -3.665080 -7.639860 -4.296646 -1.852870 1.473224 0.626525 -1.199904 0.000000 0.000000 0.000000 1.471100 -30.231992 0.156546 1.296517 -2.661500 -6.444290 5.839261 6.567943 1.978287 -19.149726 0.330890 9.178641 -3.596604 -0.943070 -0.957735 0.000000 0.000000 0.000000 0.871733 -27.280624 -0.975010 6.247965 -1.722200 -0.044124 2.274059 -1.127389 2.747715 0.279736 -3.871697 0.374284 0.000000 0.000000 0.000000 2.620043 -0.429000 2.656023 -6.830556 18.106374 -7.734681 -2.394535 22.472007 4.412233 0.000000 0.000000 0.000000 2.424176 0.003603 2.831420 0.919882 -10.178210 -3.508078 0.112720 -4.083701 -1.937273 -61.057779 -0.603144 -34.858642 23.142055 -64.252368 24.491151 0.000000 0.000000 0.000000 2.170626 -0.616966 2.268557 3.841055 7.450457 7.633242 -0.954973 -3.477382 2.026814 -1.369984 -1.086203 61.436186 16.323623 14.726048 -7.633320 0.000000 0.000000 0.000000 
-0.123828 33.653957 -0.321619 0.000000 0.000000 0.000000 1.041154 -30.189504 -0.402586 -18.570075 16.969221 16.500668 22.396088 8.650628 -3.514248 -8.157059 -4.735474 -2.522565 1.506174 0.527345 -0.978564 0.000000 0.000000 0.000000 1.543705 -29.227633 0.076298 1.752770 -1.972859 -6.338758 5.792559 6.192339 1.543209 -19.571487 -0.363871 10.393124 -4.408204 -1.093302 -1.114531 0.000000 0.000000 0.000000 0.753033 -25.631233 -0.641837 5.860438 -1.316456 0.011054 2.503462 -0.897316 2.665056 -0.974697 -1.243088 0.247019 0.000000 0.000000 0.000000 2.314143 -0.298357 2.435454 -6.705776 17.040057 -7.374209 -3.270485 21.880615 4.851293 0.000000 0.000000 0.000000 2.554367 0.214220 2.713502 0.494717 -8.907951 -3.935116 -0.992480 -2.155090 -2.654625 -60.217113 2.337152 -34.225347 24.257687 -64.584834 25.281788 0.000000 0.000000 0.000000 2.094465 -0.385437 2.124380 3.829808 7.774057 8.129254 -0.919799 -3.438622 1.284848 -0.422988 -0.830012 60.830833 16.766895 15.486457 -7.830886 0.000000 0.000000 0.000000 
-0.063739 33.493382 -0.032785 0.000000 0.000000 0.000000 0.922685 -26.780229 -0.303752 -19.795910 16.670313 16.109421 23.636037 7.920941 -3.618777 -9.020309 -5.750069 -2.861215 1.233162 0.381810 -0.564198 0.000000 0.000000 0.000000 1.611705 -25.266026 0.072254 3.163471 -2.296352 -6.209526 7.393961 4.349707 0.904153 -22.949514 -2.197042 10.032915 -3.217344 -1.218272 -1.173317 0.000000 0.000000 0.000000 0.870004 -22.142034 -0.150912 5.274182 -0.466301 0.246700 2.832134 -0.295746 2.490966 -1.701265 0.529876 0.158511 0.000000 0.000000 0.000000 2.199048 0.178516 2.178251 -7.257281 14.520209 -6.826640 -3.979983 19.105521 4.627671 0.000000 0.000000 0.000000 2.710431 0.692957 2.437224 -0.049418 -6.931914 -4.575223 -1.538253 -1.062793 -2.426438 -61.559020 7.578792 -32.747584 25.680506 -67.440093 26.073571 0.000000 0.000000 0.000000 2.050067 0.188676 1.919677 3.888018 8.452462 8.930838 -0.950607 -3.118149 0.516515 1.064613 -1.849035 60.464215 17.885941 17.300198 -8.573899 0.000000 0.000000 0.000000 
-0.005551 33.255260 0.365173 0.000000 0.000000 0.000000 0.877591 -21.243232 0.018032 -20.890082 15.018088 14.946510 25.221063 6.872466 -3.852610 -9.577306 -7.199822 -2.882108 0.592164 0.218963 -0.008359 0.000000 0.000000 0.000000 1.679925 -19.136426 0.229220 4.972887 -3.643797 -6.337925 10.110868 1.343844 0.407941 -27.722090 -4.591130 8.523979 -1.138330 -1.182614 -1.131325 0.000000 0.000000 0.000000 1.188812 -17.290846 0.374753 4.490485 0.769190 0.539318 3.211251 0.642084 2.169690 -1.368584 1.159990 0.103022 0.000000 0.000000 0.000000 2.280404 1.003668 1.838097 -8.335346 10.673290 -5.948484 -4.441083 14.386684 3.736998 0.000000 0.000000 0.000000 2.893716 1.458638 2.036006 -0.633434 -4.496902 -5.205465 -1.006372 -1.455565 -0.971174 -64.712381 13.131531 -30.612686 27.333382 -72.074451 26.786130 0.000000 0.000000 0.000000 2.074899 1.081817 1.601060 3.962212 9.289414 10.030910 -1.140982 -2.763045 -0.066366 2.709890 -3.863944 60.373763 19.448299 19.469256 -9.704714 0.000000 0.000000 0.000000 
0.062349 33.045048 0.820351 0.000000 0.000000 0.000000 0.833388 -14.359112 0.441833 -21.448447 11.911158 13.085971 26.498129 5.781297 -4.051396 -9.342007 -8.820552 -2.477182 -0.147025 0.054095 0.572397 0.000000 0.000000 0.000000 1.785588 -11.771863 0.547400 6.943883 -5.608468 -6.901781 13.240583 -1.796742 0.501588 -31.512307 -6.728631 7.353057 -0.787803 -0.974283 -0.949124 0.000000 0.000000 0.000000 1.545550 -11.510528 0.838156 3.460322 2.319218 0.778719 3.541416 1.867990 1.681638 -0.265287 1.152890 0.369800 0.000000 0.000000 0.000000 2.567499 2.141582 1.400970 -9.744397 5.595405 -4.475886 -4.571132 8.253543 2.225112 0.000000 0.000000 0.000000 3.063584 2.516072 1.542030 -1.158957 -1.846143 -5.756886 0.032851 -2.532110 0.939081 -68.700174 17.757213 -28.158341 28.080514 -77.390319 26.413921 0.000000 0.000000 0.000000 2.184804 2.242638 1.171350 3.966153 10.091845 11.375624 -1.802143 -2.380553 -0.279083 4.278650 -6.241540 60.365710 21.149585 21.245250 -11.063860 0.000000 0.000000 0.000000 
